<svg width="{{ logo_width }}" height="{{ logo_height }}" viewBox="0 0 139 139" version="1.1" xmlns="http://www.w3.org/2000/svg">
    <path fill="#ffffff" fill-opacity="0" d=" M 0.00 0.00 L 139.00 0.00 L 139.00 139.00 L 0.00 139.00 L 0.00 0.00 Z" />
    <path fill="{{ logo_first_color }}" d=" M 24.57 25.59 C 35.24 14.42 50.25 7.61 65.67 6.83 C 65.67 12.39 65.69 17.95 65.66 23.51 C 53.47 24.46 41.77 30.46 34.05 39.97 C 28.12 47.11 24.62 56.10 23.85 65.33 C 18.27 65.35 12.70 65.36 7.12 65.32 C 7.97 50.56 14.16 36.12 24.57 25.59 Z" />
    <path fill="{{ logo_first_color }}" d=" M 72.31 6.87 C 87.98 7.55 103.21 14.66 113.93 26.09 C 124.06 36.58 130.07 50.80 130.88 65.33 C 125.31 65.35 119.73 65.35 114.16 65.33 C 113.21 53.04 107.11 41.23 97.46 33.52 C 90.36 27.70 81.46 24.28 72.34 23.52 C 72.31 17.97 72.35 12.42 72.31 6.87 Z" />
    <path fill="{{ logo_second_color }}" d=" M 42.42 39.04 C 49.19 33.05 57.97 29.34 67.03 28.95 C 77.40 28.36 87.84 32.14 95.58 39.04 C 93.07 41.57 90.55 44.10 88.02 46.61 C 77.50 37.36 60.52 37.36 50.00 46.61 C 47.46 44.10 44.93 41.58 42.42 39.04 Z" />
    <path fill="{{ logo_second_color }}" d=" M 39.35 42.08 C 41.90 44.60 44.49 47.09 46.94 49.70 C 37.65 60.19 37.73 77.19 46.95 87.70 C 44.41 90.21 41.94 92.79 39.32 95.22 C 33.03 88.02 29.25 78.62 29.25 69.02 C 29.08 59.18 32.87 49.45 39.35 42.08 Z" />
    <path fill="{{ logo_second_color }}" d=" M 42.42 98.29 C 44.93 95.76 47.45 93.23 49.99 90.73 C 60.52 99.98 77.50 99.98 88.03 90.73 C 90.56 93.23 93.07 95.76 95.58 98.28 C 88.34 104.75 78.72 108.49 68.99 108.43 C 59.27 108.49 49.67 104.73 42.42 98.29 Z" />
    <!--<path fill="{{ logo_second_color }}" d=" M 91.06 49.64 C 93.58 47.11 96.10 44.59 98.64 42.08 C 105.38 49.68 109.18 59.85 108.75 70.03 C 108.52 79.29 104.75 88.27 98.69 95.22 C 96.08 92.80 93.62 90.22 91.07 87.73 C 100.28 77.16 100.33 60.20 91.06 49.64 Z" />-->
    <!--<path fill="{{ logo_first_color }}" d=" M 44.52 67.34 C 45.06 55.20 55.54 44.72 67.67 44.18 C 67.69 46.37 67.71 48.55 67.71 50.73 C 59.08 51.43 51.79 58.70 51.09 67.34 C 48.90 67.35 46.71 67.35 44.52 67.34 Z" />-->
    <!--<path fill="{{ logo_first_color }}" d=" M 70.34 44.18 C 82.48 44.72 92.95 55.20 93.50 67.33 C 91.31 67.35 89.12 67.35 86.94 67.33 C 86.22 58.68 78.94 51.44 70.30 50.72 C 70.30 48.54 70.32 46.36 70.34 44.18 Z" />-->
    <!--<path fill="{{ logo_first_color }}" d=" M 44.53 69.99 C 46.71 69.98 48.90 69.98 51.09 69.99 C 51.79 78.62 59.05 85.91 67.70 86.59 C 67.70 88.77 67.70 90.94 67.69 93.12 C 55.56 92.62 45.05 82.12 44.53 69.99 Z" />-->
    <!--<path fill="{{ logo_first_color }}" d=" M 86.92 69.99 C 89.11 69.98 91.30 69.98 93.49 70.00 C 92.95 82.10 82.47 92.67 70.32 93.09 C 70.32 90.92 70.32 88.75 70.32 86.58 C 78.96 85.91 86.24 78.62 86.92 69.99 Z" />-->
    <path fill="{{ logo_first_color }}" d=" M 7.13 72.02 C 12.70 71.98 18.27 72.00 23.85 72.01 C 24.78 84.23 30.83 95.97 40.38 103.69 C 47.50 109.60 56.48 113.05 65.68 113.85 C 65.66 119.42 65.70 124.99 65.65 130.56 C 50.65 129.70 35.99 123.30 25.40 112.59 C 14.51 101.98 7.97 87.18 7.13 72.02 Z" />
    <path fill="{{ logo_first_color }}" d=" M 114.15 72.02 C 119.73 71.99 125.31 71.99 130.89 72.02 C 130.04 86.95 123.71 101.54 113.10 112.10 C 102.47 123.10 87.61 129.68 72.37 130.57 C 72.28 125.00 72.35 119.44 72.33 113.87 C 84.62 112.85 96.43 106.81 104.15 97.14 C 109.97 90.05 113.40 81.14 114.15 72.02 Z" />
</svg>